<svg xmlns="http://www.w3.org/2000/svg" width="50" height="40">
  <path d="M36.309 5a15.49 15.49 0 0 0-9.365 3.114C25.273 3.437 19.97 0 13.692 0 6.825 0 1.083 4.005.043 9.523A2.568 2.568 0 0 0 2.657 12.5h4.659L10 10.35l1.038.832c-.045.044-.1.078-.14.12-4.857 4.859-6.083 11.75-2.917 16.385a2.566 2.566 0 0 0 3.992.216l9.427-10.33a69.266 69.266 0 0 1-2.556 19.265A2.487 2.487 0 0 0 21.222 40h7.065a2.473 2.473 0 0 0 2.452-2.091c1.172-7.266.131-15.055-.976-20.409h7.005l1.983-1.983 1.982 1.983h6.612a2.568 2.568 0 0 0 2.614-2.977C48.919 9.005 43.176 5 36.309 5ZM10 7.15 6.439 10 2.5 9.987C3.3 5.719 8.116 2.5 13.692 2.5a12.161 12.161 0 0 1 9.792 4.42 13.827 13.827 0 0 0-10.493 2.621Zm.046 19.127c-2.451-3.585-1.323-9.262 2.62-13.2a12.586 12.586 0 0 1 8.659-3.891 8.177 8.177 0 0 1 3.611.8ZM28.287 37.5h-7.036c1.1-3.977 3.306-13.395 2.523-22.536l2.2-2.409c.945 3.297 3.926 14.867 2.313 24.945ZM41.768 15l-3.017-3.017L35.733 15h-6.526c-.685-2.847-1.239-4.463-1.262-4.531A12.871 12.871 0 0 1 36.309 7.5c5.576 0 10.391 3.219 11.035 7.5Z" style="fill:#407bff" transform="translate(-.001)"/>
</svg>
