<svg xmlns="http://www.w3.org/2000/svg" width="45" height="40">
  <path d="M37.5 15h-8.926L20.363.63A1.251 1.251 0 0 0 19.277 0h-6.9a1.249 1.249 0 0 0-1.2 1.593L15 15h-5l-3.373-4.5a1.25 1.25 0 0 0-1-.5H1.253a1.25 1.25 0 0 0-1.212 1.553L2.5 20 .041 28.447A1.25 1.25 0 0 0 1.253 30h4.374a1.249 1.249 0 0 0 1-.5L10 25h5l-3.83 13.406A1.25 1.25 0 0 0 12.374 40h6.9a1.251 1.251 0 0 0 1.085-.63L28.574 25H37.5c2.762 0 7.5-2.238 7.5-5s-4.736-5-7.5-5Zm0 7.5H27.123l-8.571 15h-4.52l4.286-15H8.752L5 27.5H2.92L5.106 20l-2.187-7.5H5l3.75 5h9.564l-4.285-15h4.521l8.571 15H37.5c2.05 0 4.891 1.7 5 2.493-.106.807-2.948 2.507-5 2.507Z" style="fill:#407bff" transform="translate(-.003)"/>
</svg>
