<svg xmlns="http://www.w3.org/2000/svg" width="50" height="40">
  <path d="M23.75 10h-15a1.254 1.254 0 0 0-1.25 1.25v7.5A1.254 1.254 0 0 0 8.75 20h15A1.254 1.254 0 0 0 25 18.75v-7.5A1.254 1.254 0 0 0 23.75 10Zm-1.25 7.5H10v-5h12.5ZM45.008 15h1.867A3.124 3.124 0 0 0 50 11.875 9.372 9.372 0 0 0 40.625 2.5H30V1.25A1.254 1.254 0 0 0 28.75 0h-10a1.254 1.254 0 0 0-1.25 1.25V2.5H5a5 5 0 0 0-5 5v15.43a4.984 4.984 0 0 0 1.461 3.531l5.445 5.445a2 2 0 0 0 .758.461A6.246 6.246 0 1 0 20 33.75a6.584 6.584 0 0 0-.125-1.25h12.75a6 6 0 0 0-.125 1.25 6.25 6.25 0 0 0 12.5 0 6.584 6.584 0 0 0-.125-1.25H47.5A2.507 2.507 0 0 0 50 30v-7.937a4.984 4.984 0 0 0-1.461-3.531Zm1.461 5H32.5v-5h7.93a2.532 2.532 0 0 1 1.781.734ZM13.75 37.5a3.75 3.75 0 1 1 3.75-3.75 3.751 3.751 0 0 1-3.75 3.75ZM30 30H18.719a6.188 6.188 0 0 0-9.937 0h-.243l-5.3-5.3a2.5 2.5 0 0 1-.739-1.77V7.5A2.5 2.5 0 0 1 5 5h35.625a6.885 6.885 0 0 1 6.875 6.875.627.627 0 0 1-.625.625H30Zm8.75 7.5a3.75 3.75 0 1 1 3.75-3.75 3.751 3.751 0 0 1-3.75 3.75ZM47.5 30h-3.781a6.188 6.188 0 0 0-9.937 0H32.5v-7.5h15Z" style="fill:#407bff"/>
</svg>
