<svg xmlns="http://www.w3.org/2000/svg" width="350" height="290.5">
  <defs>
    <style>
      .a{fill:#f5f5f5}.b{fill:#ebebeb}.d{fill:#e0e0e0}.e{fill:#407bff}.f,.g,.j,.m,.q{fill:#fff}.f{opacity:.8}.f,.g,.j,.k,.m,.n{isolation:isolate}.g,.k,.n,.p{opacity:.2}.h{fill:#263238}.j{opacity:.6}.m{opacity:.1}.o{fill:#e4897b}
    </style>
  </defs>
  <g>
    <circle cx="38.967" cy="38.967" r="38.967" class="a" transform="translate(198.954 31.093)"/>
    <path d="M294.183 62.379a6.342 6.342 0 0 0-8.17-6.079 13.437 13.437 0 0 0-15.774-15.159 11.747 11.747 0 0 0-21.784 5.939c-.066 0-.129-.009-.2-.009a10.828 10.828 0 1 0 0 21.655h39.766l-.007-.009a6.343 6.343 0 0 0 6.169-6.338ZM216.412 85.925a6.344 6.344 0 0 0-8.169-6.079 13.433 13.433 0 0 0-15.774-15.158 11.747 11.747 0 0 0-21.784 5.938c-.066 0-.13-.009-.2-.009a10.828 10.828 0 1 0 0 21.655h39.769l-.008-.009a6.342 6.342 0 0 0 6.166-6.338ZM68.262 95.994a6.342 6.342 0 0 0-8.17-6.079 13.437 13.437 0 0 0-15.776-15.158 11.747 11.747 0 0 0-21.784 5.939c-.066 0-.129-.009-.2-.009a10.828 10.828 0 1 0 0 21.655h39.764l-.008-.009a6.343 6.343 0 0 0 6.174-6.339ZM290.514 120.637a3.834 3.834 0 0 0-4.938-3.674 8.12 8.12 0 0 0-9.534-9.162 7.1 7.1 0 0 0-13.166 3.589c-.04 0-.079-.006-.119-.006a6.544 6.544 0 1 0 0 13.088h24.034v-.006a3.833 3.833 0 0 0 3.723-3.829ZM98.106 16.248a3.831 3.831 0 0 0-4.937-3.674 8.116 8.116 0 0 0-9.534-9.166 7.1 7.1 0 0 0-13.167 3.589c-.039 0-.078-.007-.118-.007a6.545 6.545 0 0 0 0 13.089h24.034l-.006-.006a3.833 3.833 0 0 0 3.728-3.825ZM43.784 118.017l25.4 115.368 4.616-2.165-26.673-113.855Z" class="b"/>
    <path d="M399.33 351.2s-15.7-108.4 19.646-220.523l-5.546-4.277s-41.423 84.79-35.392 227.843Z" style="fill:#e6e6e6" transform="translate(-113.371 -118.37)"/>
    <path d="M315.225 24.374c12.959-8.492 32.144 5.024 34.774 26.141a40.037 40.037 0 0 0-5.949-2.827c-1-5.312-1.972-10.015-1.972-10.015l.689 9.536a49.266 49.266 0 0 0-3.731-1.173l-.9-5.133-.423 4.792a46.055 46.055 0 0 0-5.572-.987l-2.416-14.977-1.256 14.715a39.423 39.423 0 0 0-5.751.255l-1.482-10.191-.013 10.392a37.175 37.175 0 0 0-4.859 1.121l-1.775-15.2s.053 8.546-.044 15.793a39.884 39.884 0 0 0-12.515 7.363l-.135-1.871s1.503-19.983 13.33-27.734Z" class="d"/>
    <path d="M297.319 17.587c-10.288-11.585-32.339-3.557-40.4 16.138a40.1 40.1 0 0 1 6.481-1.172 707.962 707.962 0 0 1 4.523-9.151l-3.159 9.025c1.206-.1 2.513-.157 3.908-.158l2.207-4.72-.844 4.735a46.391 46.391 0 0 1 5.636.506l6.25-13.822-2.637 14.53a39.685 39.685 0 0 1 5.485 1.75l4.1-9.448-2.705 10.034a37.19 37.19 0 0 1 4.4 2.352l5.687-14.206s-2.286 8.235-4.087 15.255a39.891 39.891 0 0 1 10.154 10.379l.62-1.771s3.77-19.681-5.619-30.256Z" class="d"/>
    <path d="M287.4 45.06c10.314-10.07 18.065-1.306 18.065-1.306a22.513 22.513 0 0 0-10.341 6.647l-1.4-1.817.224 3.1a44.879 44.879 0 0 0-2.072 2.577l-2.364-5.375 1.008 7.277a64.72 64.72 0 0 0-2.649 4.246l-1.041-5.334.079 7.068a85.98 85.98 0 0 0-2.313 4.631l-1.124-9.78-.147 12.648c-1.651 3.9-2.508 6.643-2.508 6.643s-3.731-21.156 6.583-31.225ZM315.254 68.844l-2.131 1.227a122.771 122.771 0 0 0-1.081-5.105l1.452-2.652-1.822 1.126q-.218-.869-.454-1.734l1.856-5.2-2.779 2.07c-1.5-4.683-3.417-8.8-5.811-10.772 0 0 23.661 7.559 10.29 33.063 0 0-.428-4.038-1.38-9.338Z" class="d"/>
    <path d="m291.985 47.982-3.784-7.125 1.556 7.422q-.563.093-1.143.207l-4.9-6.105 1.208 7.03a43.823 43.823 0 0 0-4.925 1.815 55.53 55.53 0 0 0-5.113 2.58l-2.39-6.236 1.112 6.979c-1.624.969-3.2 2-4.72 3.063l-1.189-5.5.112 6.264a100.575 100.575 0 0 0-5.23 4.055l.147-9.959-1.448 11.055a117.434 117.434 0 0 0-4.408 3.963l-.184-6.908-1.746 8.773c-1.824 1.807-2.866 2.965-2.866 2.965.952-24.191 10.318-33.8 25.835-36.392s26.692 13.521 26.692 13.521-4.764-2.254-12.616-1.467ZM337.229 77.545l-1.419 7.211a109.62 109.62 0 0 0-2.781-6.647l1.27-10.553-2.325 8.319a81.394 81.394 0 0 0-6.3-10.878l2.208-7.316-3.582 5.43a49.245 49.245 0 0 0-2.229-2.736l1.257-4.606-1.937 3.849q-.795-.861-1.625-1.661l1.523-6.144-2.42 5.312a27 27 0 0 0-4.968-3.587l2.467-7.513-3.867 6.809a17.076 17.076 0 0 0-7.771-1.624s4.661-7.493 13.307-10.081 27.2 13.029 19.134 47.461c0 0-.247-.784-.726-2.122ZM323.01 10.647l1.472 4.37a9.533 9.533 0 0 0-1.614.23l-1.776-5.689 1.185 5.841a12.6 12.6 0 0 0-3.185 1.454l-2.444-7.685 1.436 8.375c-.389.288-.785.606-1.187.96l-2.758-7.213 2.082 7.836a30.4 30.4 0 0 0-5.166 6.882l-.764-10.574-1.216 14.433a85.977 85.977 0 0 0-4.877 13.981s-1.5-38.417 7.756-42.766 14.763 14.147 14.763 14.147a5.409 5.409 0 0 0-1.266-.206Z" class="d"/>
    <path d="m309.786 53.42-.826 7.29-2.778-7.029-3.774 5.5-1.473-5.123-4.338 3.639s.53-9.295 3.3-13.544 11.063-1.262 9.889 9.267Z" class="d"/>
    <path d="M210.292 129.105V78.291s-10.309 10.944-17.146 9.46-15.743 3.69-15.743 3.69 8.944-1.3 12.264 2.326 18.139 4.018 18.139 4.018v33.184Z" class="b"/>
    <path d="M255.767 113.528h-2.341v3.2h-7.732v-3.2h-7.591v3.2h-7.732v-3.2h-7.593v3.2h-7.73v-3.2h-7.591v3.2h-7.732v-3.2h-7.591v3.2h-7.732v-3.2h-7.591v3.2h-7.733v-3.2h-2.6l-7.533 60.215 104.614-.435Z" class="d"/>
    <path d="M272.414 157.237h-3.216v4.391h-10.625v-4.391h-10.43v4.391h-10.622v-4.391h-10.429v4.391h-10.624v-4.391h-10.43v4.391h-10.624v-4.391h-10.429v4.391h-10.624v-4.391h-10.429v4.391h-10.624v-4.391h-3.571l-10.35 82.732 143.734-.6Z" class="b"/>
    <path d="M312.87 230.228c-1.927-2.505-3.745-5.065-5.761-7.477a2.529 2.529 0 0 1-.292-.4 16.377 16.377 0 0 0-2.075-1.318c-.127-.051-.549-.246-.987-.431a76.302 76.302 0 0 1-2.414-1.08c-5.063-2.346-9.609-5.063-13.428-9.69-2.092-2.535-3.763-5.493-5.933-7.942-.052.081-.478-.176-.68-.373-.645-.084-1.519-.234-1.635-.235a37.103 37.103 0 0 0-2.626.062c-1.25.064-2.5.182-3.741.308-4.853 8.182-10.993 19.348-13.7 20.826-4.192 2.286-42.858 14.04-45.705 13.346s-17.777.694-21.524.534-10.532-2.075-20.353-7.274-15.2-5.238-27.03-9.577-19.768-5.993-26.693.685-25.945-7.421-31.873-9.43-17.275-13.575-25.014-8.179-14.178 7.967-23.846 17.612S8.707 248.47 8.707 248.47H335.33l-3.749-7.552c-7.226-.455-13.824-4.334-18.711-10.69Z" class="a"/>
    <path d="M0 155.151s10.946-19.663 40.611-36.688c0 0 24.138-2.058 51.392 9.823 0 0 5.525 9.179-.753 12.8s-11.493-3.657-11.493-3.657-1.158 11.085-9.351 11.406-10.6-7.749-10.6-7.749-.8 10.173-10.583 12.744c-8.49 2.233-13.764-4.995-13.764-4.995s-1.689 8.361-9.3 10.772c-6.114 1.939-10.3-3.322-10.3-3.322s-1.755 9.074-8.248 9.074C2.041 165.355 0 155.151 0 155.151Z" class="d"/>
  </g>
  <ellipse cx="157.131" cy="10.621" class="a" rx="157.131" ry="10.621" transform="translate(12.132 269.259)"/>
  <path d="M270.21 233.61s4.082-5.973 7.792-7.643 4.322-8.014 6.335-8.366 4.24 5.51 7.765 7.216 8.863 8.757 8.863 8.757Z" class="e"/>
  <path d="M270.21 233.61s4.082-5.973 7.792-7.643 4.322-8.014 6.335-8.366 4.24 5.51 7.765 7.216 8.863 8.757 8.863 8.757Z" class="f"/>
  <path d="M299.88 276.63H270.2l-3.752-43.057h37.183Z" class="e"/>
  <path d="M264.654 231.347h40.774v4.526h-40.774z" class="e"/>
  <path d="M264.654 231.347h40.774v4.526h-40.774z" class="g"/>
  <path d="M283.283 234.529c2.706 4.239 14.266 21.737 21.435 23.011l.886-2.12s-6.423.768-20.6-21.961a1.019 1.019 0 0 0-1.342-.364 1.009 1.009 0 0 0-.379 1.434Z" class="h"/>
  <path d="M241.062 220.948a2.392 2.392 0 0 1 3.015 1.624l5.071 17.719 6.591-2.638s3.968 14.774-3.525 17.106c-7.328 2.281-12.987-11.355-12.987-11.355l6.7-1.853-6.395-17.5a2.393 2.393 0 0 1 1.53-3.103Z" class="e"/>
  <path d="M363.941 388.328c-7.325 2.279-12.981-11.358-12.981-11.358l6.7-1.848s1.154 1.97 2.448 1.482.769-2.748.769-2.748l6.594-2.636s3.964 14.772-3.53 17.108Z" style="opacity:.4;isolation:isolate;fill:#fff" transform="translate(-111.728 -133.565)"/>
  <path d="M308.364 280.266c-3.688-1.829-7.453-3.557-8.659-3.636-2.6-.172-4.082-1.326-5.937-3.532s-2.6-4.754-5.936-8.3.371-4.966-6.679-5.88-4.329-.333-8.658-3.454-3.457-3.12-8.531-5.346-2.107-3.077-8.044-3.58c-4.1-.346-10.586 1.814-13.948 4.214-1.492 1.065-2.257 2.832-3.727 3.767-1.656 1.053-4.238-.9-3.967 2.63a9.046 9.046 0 0 1 .122 2.765c-.478 2.005-8.742 2-10.839 2.63a2 2 0 0 0-1.261.766c-.477.854.241 2.365-.687 2.678-.29.1-.612-.014-.914.043-1.119.215-.824 2.221-1.867 2.683-1 .441-2.259-.476-3.423-.039-.9.336-1.192 1.542-1.971 2.017-1.356.828-2.77 1.439-4.108 2.316-2.329 1.526-4.344 3.394-6.841 4.738l-6.679 1.825-1.995.7Z" class="e"/>
  <path d="M308.364 280.266c-3.688-1.829-7.453-3.557-8.659-3.636-2.6-.172-4.082-1.326-5.937-3.532s-2.6-4.754-5.936-8.3.371-4.966-6.679-5.88-4.329-.333-8.658-3.454-3.457-3.12-8.531-5.346-2.107-3.077-8.044-3.58c-4.1-.346-10.586 1.814-13.948 4.214-1.492 1.065-2.257 2.832-3.727 3.767-1.656 1.053-4.238-.9-3.967 2.63a9.046 9.046 0 0 1 .122 2.765c-.478 2.005-8.742 2-10.839 2.63a2 2 0 0 0-1.261.766c-.477.854.241 2.365-.687 2.678-.29.1-.612-.014-.914.043-1.119.215-.824 2.221-1.867 2.683-1 .441-2.259-.476-3.423-.039-.9.336-1.192 1.542-1.971 2.017-1.356.828-2.77 1.439-4.108 2.316-2.329 1.526-4.344 3.394-6.841 4.738l-6.679 1.825-1.995.7Z" class="f"/>
  <path d="M229.655 263.196a1.522 1.522 0 0 1-.009.206v.009a16.9 16.9 0 0 1-2.664 8.957c-.141.216-.281.431-.441.647a17.083 17.083 0 0 1-3.527 3.686 11.146 11.146 0 0 1-.957.685h-.009a1.64 1.64 0 0 1-.234.15c-.1.075-.206.131-.31.2a5.359 5.359 0 0 1-.5.3c-.263.15-.535.3-.807.431h-.009a17.017 17.017 0 0 1-19.95-3.489 16.585 16.585 0 0 1-2.861-4 16.963 16.963 0 0 1-1.876-7.775v-.056c0-.478.019-.957.066-1.426a16.787 16.787 0 0 1 1.81-6.3 15.379 15.379 0 0 1 .825-1.435 17.385 17.385 0 0 1 3.6-4.033 14.712 14.712 0 0 1 1.4-1.013 6.241 6.241 0 0 1 .525-.338 16.7 16.7 0 0 1 4.314-1.867c.131-.037.263-.075.394-.1a17.188 17.188 0 0 1 4.146-.507q.661 0 1.294.056c.113 0 .216.009.328.019h.009a16.807 16.807 0 0 1 5.478 1.482c.066.028.141.066.216.1a17.032 17.032 0 0 1 9.6 13.159v.028a15.934 15.934 0 0 1 .149 2.224Z" class="e"/>
  <path d="M229.656 263.196a17.034 17.034 0 0 1-9.454 15.27c-.009.009-.009 0-.009 0a3.581 3.581 0 0 1-.938-1.154c3.151-9.192 0-14.116 0-14.116l.009-.094.225-1.473.047-.272c.488-2.729 1.716-7.841 4.38-10.936a17.045 17.045 0 0 1 5.74 12.775ZM199.491 260.242s-2.992 2.992-2.11 10.73a17.074 17.074 0 0 1 4.427-21.028 20.559 20.559 0 0 0-2.317 10.298Z" class="j"/>
  <path d="M223.915 250.421c-3.752 4.352-4.662 12.775-4.662 12.775-10.3 2.523-19.762-2.954-19.762-2.954a20.659 20.659 0 0 1 2.317-10.3 17.075 17.075 0 0 1 22.107.478ZM220.192 278.465a17.017 17.017 0 0 1-19.95-3.489c3.2 1.9 9.736 4.568 19.012 2.336a3.58 3.58 0 0 0 .938 1.153Z" class="g"/>
  <g class="k">
    <path d="M219.91 247.772a20.065 20.065 0 0 0-1.229 1.951 30.111 30.111 0 0 0-1.791 4.014c-.525 1.379-.929 2.8-1.313 4.211a66.894 66.894 0 0 0-.966 4.324 30.273 30.273 0 0 1 .619-4.4 36.108 36.108 0 0 1 1.219-4.3 26.451 26.451 0 0 1 1.913-4.033 20.492 20.492 0 0 1 1.332-1.876c.066.038.141.076.216.109ZM214.207 246.191c-.234.422-.45.853-.657 1.285a29.321 29.321 0 0 0-1.7 4.511c-.5 1.538-.872 3.114-1.229 4.69s-.657 3.17-.929 4.765a40.082 40.082 0 0 1 .582-4.84 41.054 41.054 0 0 1 1.126-4.746 26.5 26.5 0 0 1 1.829-4.549c.206-.385.422-.769.647-1.135.116-.001.219.009.331.019ZM208.439 246.622c-.094.253-.2.507-.291.76a33.318 33.318 0 0 0-1.266 4.268c-.366 1.444-.647 2.908-.919 4.38s-.5 2.945-.713 4.427a37.841 37.841 0 0 1 .366-4.483 44.286 44.286 0 0 1 .816-4.427 28.044 28.044 0 0 1 1.379-4.305c.075-.169.15-.347.234-.516.131-.038.263-.076.394-.104ZM203.73 248.592c-.319 1.051-.619 2.1-.835 3.17-.272 1.191-.469 2.4-.657 3.611s-.319 2.429-.431 3.658a25.594 25.594 0 0 1 .075-3.7 34.591 34.591 0 0 1 .553-3.667 27.572 27.572 0 0 1 .769-2.739c.17-.114.346-.23.526-.333ZM224.055 268.889a16.711 16.711 0 0 1-.685 5.224 17.66 17.66 0 0 1-.91 2.467c-.122.272-.263.544-.4.807h-.009a1.642 1.642 0 0 1-.234.15 19.731 19.731 0 0 0 1.21-3.517 17.493 17.493 0 0 0 .563-5.121 18.727 18.727 0 0 0-.788-5.093 20.878 20.878 0 0 0-2.063-4.774 16.405 16.405 0 0 1 2.4 4.662 17.492 17.492 0 0 1 .916 5.195ZM227.423 268.41l-.047 1.416-.2 1.407a9.264 9.264 0 0 1-.2 1.135c-.141.216-.281.431-.441.647a12.141 12.141 0 0 0 .281-1.829l.141-1.388.028-1.388a9.944 9.944 0 0 0-.037-1.4c-.047-.46-.047-.919-.131-1.379a20.508 20.508 0 0 0-1.373-5.372 19.059 19.059 0 0 0-2.758-4.84 15.947 15.947 0 0 1 3.086 4.7 19.7 19.7 0 0 1 1.519 5.459c.075.469.066.938.1 1.416a10.2 10.2 0 0 1 .032 1.416ZM229.655 263.196a1.522 1.522 0 0 1-.009.206c-.019-.1-.038-.216-.056-.319a24.906 24.906 0 0 0-1.885-5.637 20.336 20.336 0 0 0-3.245-5 17.436 17.436 0 0 1 3.564 4.84 23.229 23.229 0 0 1 1.482 3.649v.028a15.934 15.934 0 0 1 .149 2.233ZM198.656 257.54a13.983 13.983 0 0 0-1.923 2.776 18.367 18.367 0 0 0-1.229 2.823c0-.478.019-.957.066-1.426a14.165 14.165 0 0 1 .854-1.576 9.9 9.9 0 0 1 2.232-2.597ZM199.463 253c-.713.807-1.407 1.6-2.082 2.411a15.372 15.372 0 0 1 .825-1.435 14.047 14.047 0 0 1 1.257-.976ZM199.462 263.86q2.337.9 4.732 1.592a42.5 42.5 0 0 0 4.838 1.153 22.023 22.023 0 0 0 9.85-.122 14.864 14.864 0 0 1-4.914.984 25.853 25.853 0 0 1-5.019-.4 35.916 35.916 0 0 1-4.863-1.272 32.738 32.738 0 0 1-4.624-1.935ZM199.462 267.938a40.417 40.417 0 0 0 4.807 1.577 36.387 36.387 0 0 0 4.949.95 28.662 28.662 0 0 0 5.025.237l1.26-.059 1.253-.151c.845-.053 1.655-.3 2.5-.42a20.866 20.866 0 0 1-4.99.99 25.791 25.791 0 0 1-5.1-.133 31.706 31.706 0 0 1-4.989-1.069 26.086 26.086 0 0 1-4.715-1.922ZM199.865 271.463a30.006 30.006 0 0 0 4.573 1.708 28.048 28.048 0 0 0 4.764.959c.8.128 1.612.15 2.421.21.809-.009 1.621.022 2.429-.046a29.116 29.116 0 0 0 4.829-.7 20.434 20.434 0 0 1-4.8 1.058 22.03 22.03 0 0 1-4.934-.058 25.183 25.183 0 0 1-4.813-1.081 20.972 20.972 0 0 1-4.469-2.05ZM200.576 274.121a30.765 30.765 0 0 0 4.308 1.607 27.234 27.234 0 0 0 4.479.923 21.684 21.684 0 0 0 4.56.146l1.142-.089 1.132-.184c.765-.081 1.49-.342 2.251-.486a17.12 17.12 0 0 1-4.493 1.118 19.836 19.836 0 0 1-4.651-.04 24.123 24.123 0 0 1-4.529-1.046 20.489 20.489 0 0 1-4.199-1.949Z"/>
  </g>
  <path d="M66.232 236.356s3.34-5.009 9.276-5.38 10.947 7.2 10.947 7.2h-1.884s-4.795-5.159-8.228-5.159-6.771 4.267-6.771 4.267ZM15.855 275.959c2.059-3.425 25.063-1.2 30.259-3.242l2.783 4.826s-3.965 2.2-10.554 1.424-16.533-.987-19.131 1.3Z" class="h"/>
  <path d="M60.08 411.844c2.059-3.425 25.063-1.2 30.259-3.242l2.783 4.826s-3.965 2.2-10.554 1.424-16.533-.987-19.131 1.3Z" style="opacity:.3;isolation:isolate" transform="translate(-44.225 -135.885)"/>
  <path d="M112.762 265.521a37.84 37.84 0 0 1-.628 2.392c-1.848 6.387-4.765 11.555-6.866 12.353H45.625a5.373 5.373 0 0 1-4.247-2.081c-.009-.019-.028-.037-.047-.066a4.713 4.713 0 0 1-.553-.91c-4.118-8.6-8.273-25.8-2.429-33.644a13.033 13.033 0 0 1 2.1-2.214 2.049 2.049 0 0 1 .169-.131 17.57 17.57 0 0 1 4.071-2.486c.009 0 .009-.009.019-.009s.019-.009.028-.009c4.108-1.857 9.154-2.711 14.107-3.076a72.939 72.939 0 0 1 4.258-.206c3.658-.1 7.072-.009 9.792.066 9.586.244 17.127 3.1 22.267 2.6a15.425 15.425 0 0 1 5.665.45 15.982 15.982 0 0 1 1.557.525 25.14 25.14 0 0 1 6.453 3.967c5.794 4.649 5.878 14.206 3.927 22.479Z" class="h"/>
  <path d="M112.762 265.521a37.84 37.84 0 0 1-.628 2.392c-1.848 6.387-4.765 11.555-6.866 12.353H45.625a5.373 5.373 0 0 1-4.247-2.081c-.009-.019-.028-.037-.047-.066a4.713 4.713 0 0 1-.553-.91c-4.118-8.6-8.273-25.8-2.429-33.644a13.033 13.033 0 0 1 2.1-2.214 2.049 2.049 0 0 1 .169-.131 17.57 17.57 0 0 1 4.071-2.486c.009 0 .009-.009.019-.009s.019-.009.028-.009c4.108-1.857 9.154-2.711 14.107-3.076a72.939 72.939 0 0 1 4.258-.206c3.658-.1 7.072-.009 9.792.066 9.586.244 17.127 3.1 22.267 2.6a15.425 15.425 0 0 1 5.665.45 15.982 15.982 0 0 1 1.557.525 25.14 25.14 0 0 1 6.453 3.967c5.794 4.649 5.878 14.206 3.927 22.479Z" class="m"/>
  <path d="M103.627 264.93c-4.268 0-12.8 2.035-25.418-.741a40.1 40.1 0 0 0-17.908-.136c-.135-1.9-.293-3.965-.457-6.233-1.116-15.241-9.811-21.638-15.11-19.106-.009 0-.019.009-.028.009s-.009.009-.019.009a23.462 23.462 0 0 0-4.071 2.486 2.05 2.05 0 0 0-.169.131 13.034 13.034 0 0 0-2.1 2.214c-5.844 7.837-1.689 25.043 2.431 33.644a4.713 4.713 0 0 0 .553.91c.019.028.038.047.047.066a5.4 5.4 0 0 0 4.052 1.829h10.7c4.36 0 4.877-3.993 4.391-12.578a59.374 59.374 0 0 0 2.662-1.632c2.654-1.726 12.981-.872 17.436.8s16.142 2.411 21.8 1.491a37.779 37.779 0 0 1 9.717-.178c.234-.779.441-1.576.628-2.392-1.953-.209-6.014-.593-9.137-.593Z" class="n"/>
  <path d="M64.853 243.404c2.6 9.464 4.38 12.8 5.065 13.731s19.575 3.17 23.12 3.161a68.641 68.641 0 0 0 12.231-1.2c2.41-.61 3.189-12.747-2.889-20.025a15.988 15.988 0 0 0-1.557-.525c3.311 7.428 3.386 16.526 2.992 17.793-.563 1.8-6.125 1.538-8.723 1.482s-18.74-1.06-20.409-1.716a8.563 8.563 0 0 1-3.892-3.236c-1.3-1.67-1.482-7.419-3.836-12.381a19.47 19.47 0 0 0-3.855-5.055c-1.4.028-2.823.094-4.258.206a12.371 12.371 0 0 1 6.011 7.765Z" class="n"/>
  <path d="m46.114 252.122-5.2 1.3s-3.689 10.575-1.484 15.028-15.045 10.588-23.58 7.507l3.357 4.307s20.409-1.286 24.3-9.055-1.67-8.963-2.04-11.148 4.647-7.939 4.647-7.939Z" class="h"/>
  <path d="m46.114 252.122-5.2 1.3s-3.689 10.575-1.484 15.028-15.045 10.588-23.58 7.507l3.357 4.307s20.409-1.286 24.3-9.055-1.67-8.963-2.04-11.148 4.647-7.939 4.647-7.939Z" class="m"/>
  <path d="M92.003 75.433s-20.071-11.23-24.224-14.14-26.38-24.718-27.627-25.341c0 0 .831-2.493-1.038-3.947s-9.14-6.232-10.178-6.232-3.74 10.178-3.323 12.671 10.593 3.116 10.593 3.116 21.188 24.67 24.511 28.122 25.965 18.2 25.965 18.2Z" class="o"/>
  <path d="M100.241 77.49s4.4 8.888-6.284 22.988L70.408 83.165l9.4-17.024Z" class="e"/>
  <path d="m93.957 100.48-11.124-8.179-1.454-1.069-6.275-4.605-4.7-3.461 3.461-6.256 1.96-3.555 3.986-7.213 3.846 2.138 3.32 1.838 13.262 7.372a10.55 10.55 0 0 1 .8 3.236c.421 3.781-.217 10.684-7.082 19.754Z" class="j"/>
  <path d="m93.957 100.48-11.124-8.179c3.817-7.9 13.694-10.683 18.205-11.574.422 3.78-.215 10.683-7.081 19.753Z" class="n"/>
  <g class="p">
    <path d="m86.978 70.118-3.32 1.932v-3.77ZM79.756 74.517l-4.164 5.843-1.726-3.452 1.96-3.555ZM82.833 83.306l-1.454 7.926-6.275-4.605ZM85.712 78.788l2.319 5.934 4.814-6.542Z" class="q"/>
  </g>
  <path d="M144.017 73.285s20.07-11.231 24.225-14.139 26.38-24.718 27.626-25.342c0 0-.831-2.492 1.039-3.946s9.139-6.232 10.178-6.232 3.739 10.178 3.323 12.671-10.594 3.116-10.594 3.116-21.187 24.67-24.511 28.122-25.965 18.2-25.965 18.2ZM120.031 150.644s-.431 7.1-1.116 16.555c-.431 5.89-.966 12.69-1.548 19.265-.788 8.835-1.679 17.258-2.57 22.492-.816 4.812-11.649 64.567-11.649 64.567h-7.26c2.289-55.723 5.834-77.333 5.965-80.578.047-1.06.084-2.532.131-4.286.141-6.359.263-16.4.338-23.711.056-5.271.084-9.107.084-9.107ZM148.048 195.731c-.253 4.868-3.151 77.548-3.151 77.548h-7.983c-4.08-57.889-2.532-77.989-3.264-82 0-.019-.009-.028-.009-.047-1.247-6.828-2.42-15.8-3.227-22.464a640.427 640.427 0 0 1-1.05-9.211l16.273-7.034s.985 8.4 1.726 18.552c.366 5.065.685 10.571.778 15.692.066 3.203.047 6.262-.093 8.964Z" class="o"/>
  <path d="m102.323 178.801 16.592 2.251c-.431 5.89-.966 12.69-1.548 19.265l-15.382 2.195c.141-6.359.263-16.404.338-23.711ZM148.141 200.167l-14.5 4.465c-1.247-6.828-2.42-15.8-3.226-22.464l16.948 2.307c.365 5.065.684 10.571.778 15.692Z" class="n"/>
  <path d="M104.867 271.293h-9.575a.69.69 0 0 0-.672.541l-1.554 7.019a1.164 1.164 0 0 0 1.153 1.4c3.1-.05 5.355-.241 9.244-.241 2.4 0 9.626.251 12.935.251s3.74-3.269 2.386-3.57c-6.076-1.323-10.648-3.158-12.594-4.9a1.9 1.9 0 0 0-1.323-.5ZM145.472 271.043h-9.575a.691.691 0 0 0-.672.541l-1.554 7.019a1.163 1.163 0 0 0 .9 1.379 1.183 1.183 0 0 0 .256.025c3.1-.051 5.355-.241 9.245-.241 2.4 0 9.625.25 12.934.25s3.74-3.269 2.386-3.569c-6.076-1.323-10.648-3.159-12.594-4.9a1.9 1.9 0 0 0-1.326-.504Z" class="e"/>
  <path d="M120.683 200.546c.076-.64.153-1.311.23-2.056.973-9.606 1.965-21.135 2.848-32.243 3.241 8.711 4.638 20.951 6.323 34.3h19.7a577.893 577.893 0 0 0-8.169-74.632H99.786c-.051 4.294-.529 45.959-1.6 74.632Z" class="h"/>
  <path d="M120.683 200.546c.076-.64.153-1.311.23-2.056.973-9.606 1.965-21.135 2.848-32.243 3.241 8.711 4.638 20.951 6.323 34.3h19.7a577.893 577.893 0 0 0-8.169-74.632H99.786c-.051 4.294-.529 45.959-1.6 74.632Z" class="g"/>
  <path d="M126.427 63.686a11.249 11.249 0 0 1-.34 1.115 10.934 10.934 0 0 1-3.9 5.2 11.06 11.06 0 0 1-1.427.882 9.878 9.878 0 0 1-11.8-1.877c-3.95-3.989-3.845-8.593-4.289-16.389a10.69 10.69 0 0 1 14.751-10.662c7.647 3.114 8.696 14.714 7.005 21.731Z" class="o"/>
  <path d="M122.188 69.998a11.058 11.058 0 0 1-1.427.882 9.936 9.936 0 0 1-8.54.378 11.656 11.656 0 0 1 1.393-2.646 15.392 15.392 0 0 1 8.574 1.386Z" class="n"/>
  <path d="M106.499 80.109c3.84 3.489 13.248 2.2 13.248 2.2s5.872-1.608 4.639-3.443c-3.459-.571-5.134-2.185-5.826-4.251a10.042 10.042 0 0 1-.351-3.951 20.653 20.653 0 0 1 .291-2.206l-11.631-8.61c1.525 5.683 3.389 16.14-.37 20.261Z" class="o"/>
  <path d="m122.187 56.589 1.682.636-.841-3.438s2.465-3.7 0-7.007c0 0 6.793-2.063 2.956-5.649-1.428-1.335-3.2 0-7.883-2.044-2.543-1.109-10.5-1.195-10.892 2.044 0 0-5.728-.037-6.346 9.748a19.518 19.518 0 0 0 6.067 15.418s6.916 1.639 10.275-1.138 4.982-8.57 4.982-8.57Z" class="h"/>
  <path d="M117.757 57.147a5.052 5.052 0 0 0 2.594 3.464c1.588.673 2.63-1.564 2.4-3.907-.218-2.077-1.293-5-2.992-4.615s-2.555 2.962-2.002 5.058Z" class="o"/>
  <path d="M123.76 164.94c-.883 11.11-1.875 22.66-2.848 32.266-1.424-13.866-3.168-23.753-3.168-23.753s-1.635-1.343-6.127-8.513 0-20.554 0-20.554c-.14 12.429 12.143 20.554 12.143 20.554Z" class="n"/>
  <path d="m151.204 194.288-.866 3.259h-20.974v-3.008ZM121.705 194.701l-.627 3.008h-23.75l-1.436-3.008ZM124.626 77.848s-3.411-5.4-12.017-5.783-9.253 5.538-9.253 5.538Z" class="e"/>
  <path d="M174.641 156.208s-3.411-5.4-12.017-5.783-9.253 5.538-9.253 5.538Z" style="opacity:.5;isolation:isolate;fill:#fff" transform="translate(-50.015 -78.36)"/>
  <path d="M93.742 64.478a442.3 442.3 0 0 1-.9 87.729l50.4-3.074c-.571-51.436-7.458-83.826-7.458-83.826s-13 2.725-23.562 2.331a75.807 75.807 0 0 1-18.48-3.16Z" class="e"/>
  <path d="M135.783 66.076s6.73 15.735 7.458 31.667-27.357 37.772-27.357 37.772-21.637-14.893-38.334-13.544-21.892 7.288-21.892 7.288 12.988-27.768 35.593-37.45c0 0-4.692-15.992 2.492-26.562-.002 0 15.624 5.082 42.04.829Z" class="e"/>
  <path d="M143.24 97.739a13.016 13.016 0 0 1-.009 1.351 15.827 15.827 0 0 1-.253 2.073 22.448 22.448 0 0 1-1.435 4.727v.009a51.664 51.664 0 0 1-7.766 12.2 95.694 95.694 0 0 1-4.952 5.571 131.84 131.84 0 0 1-12.934 11.846 103.1 103.1 0 0 0-18.036-9.52 70.697 70.697 0 0 0-5.956-2.1h-.009a39.734 39.734 0 0 0-14.332-1.923 54.824 54.824 0 0 0-13.618 2.666 34.677 34.677 0 0 0-2.692 1.069 23 23 0 0 0-4.014 2.242c-.141.094-.272.2-.394.291a8.102 8.102 0 0 0-.61.488 2.414 2.414 0 0 0-.225.2 1.244 1.244 0 0 0-.159.15l-.113.113-.066.066c.019-.047.113-.244.281-.582.075-.141.159-.319.263-.516.263-.525.628-1.229 1.107-2.082.066-.122.131-.244.206-.375q.169-.31.366-.647c.122-.225.253-.46.394-.694a94.4 94.4 0 0 1 1.9-3.18 95.184 95.184 0 0 1 13.6-17.2l.009-.009a65.98 65.98 0 0 1 5.853-5.168 52.292 52.292 0 0 1 11.593-6.988 45.253 45.253 0 0 1-1.482-12.54 32.762 32.762 0 0 1 .328-4.005 23.627 23.627 0 0 1 3.655-10.023 48.629 48.629 0 0 0 7.035 1.491 91.225 91.225 0 0 0 9.408.91 118.636 118.636 0 0 0 18.927-.666q3.208-.352 6.669-.91s.075.178.216.525a110.7 110.7 0 0 1 3.855 11.452c.413 1.491.825 3.086 1.219 4.755.356 1.548.694 3.161.994 4.821v.009a78.462 78.462 0 0 1 1.177 10.103Z" class="j"/>
  <g class="k">
    <path d="m136.736 110.523-2.964 7.579a95.694 95.694 0 0 1-4.952 5.571l-6.031-11.293ZM85.713 103.282l-11.912.685a65.98 65.98 0 0 1 5.853-5.168ZM99.453 73.277l-1.276 12.381-8.413-6.387a32.762 32.762 0 0 1 .328-4ZM103.356 105.895l-3.9-11.886 11.859-2.2ZM123.761 94.569v8.9l8.519-3.061ZM101.854 120.352l-4.005 5.646a70.697 70.697 0 0 0-5.956-2.1h-.009l-3.02-6.884ZM71.428 111.819l6.122 2.6-6.122 4.174ZM63.941 124.639c-6.1 2.129-8.282 4.624-8.282 4.624a84.535 84.535 0 0 1 4.53-8.085ZM113.991 113.118l-5.273 5.473 7.973 1.391ZM113.991 78.796l6.2 8.349 4.438-9.462ZM142.064 87.627l-7.926-5.215 5.712-4.361a104.247 104.247 0 0 1 2.214 9.576ZM143.227 99.089a20.607 20.607 0 0 1-1.688 6.8l-3.32-8.169ZM135.995 66.599l-5.018 5.149-1.867-4.765q3.208-.352 6.669-.91s.076.181.216.526ZM110.183 67.65l-3.686 7.8-5.721-8.713a91.221 91.221 0 0 0 9.407.913Z" class="q"/>
  </g>
  <path d="M143.236 97.738a13.008 13.008 0 0 1-.009 1.351 15.825 15.825 0 0 1-.253 2.073c-6.547-10.411-5.009-19.828-5.009-19.828l3.1 1.473c.356 1.548.694 3.161.994 4.821v.009a78.455 78.455 0 0 1 1.177 10.101Z" class="n"/>
  <path d="M116.634 33.891c11.131-3.834 13.927 10.994 2.87 21.019s-23.754 11.224-25.2 6.173 5.34-21.339 22.33-27.192Z" class="e"/>
  <path d="M105.479 33.149c5.712-.023 13.829 5.813 13.829 5.813s1.159 6.184-4.529 11.627-10.813 6.308-14 4.2-4.055-10.3-4.055-10.3a6.3 6.3 0 0 1 4.055-4.176s.935-7.149 4.7-7.164Z" class="e"/>
  <path d="M114.779 50.591c-5.693 5.44-10.814 6.3-14 4.2a5.08 5.08 0 0 1-1.388-1.463c-2.063-3.1-2.664-8.835-2.664-8.835 5.44 6.528 11.743-.216 12.615-4.793a7.243 7.243 0 0 0-1.454-6.275c3.742.807 7.86 3.208 9.98 4.568.9.572 1.444.966 1.444.966s1.16 6.192-4.533 11.632Z" class="n"/>
  <path d="M114.779 50.594c-5.693 5.44-10.814 6.3-14 4.2a5.08 5.08 0 0 1-1.388-1.463c5.7 1.7 12.493-1.126 16.142-6.2a12.564 12.564 0 0 0 2.335-9.135c.9.572 1.444.966 1.444.966s1.161 6.188-4.533 11.632Z" class="j"/>
  <path d="M135.779 75.343s-4.4 8.888 6.284 22.988l23.549-17.313-9.4-17.024Z" class="e"/>
  <path d="m165.614 81.017-6.143 4.511-9.089 6.687-8.319 6.115a50.715 50.715 0 0 1-1.51-2.1 40.624 40.624 0 0 1-2.589-4.352 25.253 25.253 0 0 1-3.086-11.33 12.451 12.451 0 0 1 .9-5.206l5.234-2.908 9.014-5 3.958-2.2 2.232-1.238Z" class="j"/>
  <g class="p">
    <path d="m159.471 85.529-9.089 6.687-4-8.91ZM158.627 71.197l-8.385 3.32-.216-7.081 3.958-2.2ZM144.013 78.175l-9.135 2.373a12.451 12.451 0 0 1 .9-5.206l5.234-2.908ZM142.063 89.553l-1.51 6.678a40.62 40.62 0 0 1-2.589-4.352Z" class="q"/>
  </g>
  <g transform="translate(150.449 129.939)">
    <path d="M0 0h11.756v58.443H0z" style="fill:none;stroke:#263238;stroke-miterlimit:10;stroke-width:3px" transform="rotate(-175.521 12.81 30.788)"/>
    <path d="m14.467 142.722 1.863.146a3.736 3.736 0 1 1-.583 7.447l-1.863-.146a3.736 3.736 0 1 1 .583-7.447Z" class="h"/>
    <path d="M10.386 146.08a3.8 3.8 0 1 0 4.089-3.495 3.8 3.8 0 0 0-4.089 3.495Z" class="m"/>
    <path d="m4.226 141.92 1.863.145a3.736 3.736 0 1 1-.583 7.447l-1.861-.145a3.736 3.736 0 1 1 .583-7.447Z" class="h"/>
    <path d="M.144 145.278a3.8 3.8 0 1 0 4.089-3.495 3.8 3.8 0 0 0-4.089 3.495Z" class="g"/>
    <rect width="19.604" height="93.521" class="h" rx="2.694" transform="rotate(-175.56 12.591 71.806)"/>
    <rect width="12.345" height="93.521" class="g" rx="2.694" transform="rotate(-175.521 12.595 71.807)"/>
    <rect width="15.991" height="4.902" class="h" rx="2" transform="rotate(-175.56 15.027 2.486)"/>
    <rect width="15.991" height="4.902" class="g" rx="2" transform="rotate(-175.56 15.027 2.486)"/>
    <rect width="4.778" height="4.902" class="n" rx="2" transform="rotate(-175.526 9.421 2.266)"/>
    <path d="m53.643 60.277-6.243 79.69a5.33 5.33 0 0 1-5.723 4.892l-29.115-2.28a3.744 3.744 0 0 1-3.428-4.023l6.49-82.843a3.736 3.736 0 0 1 4.013-3.44l29.115 2.281a5.331 5.331 0 0 1 4.891 5.723Z" class="e"/>
    <path d="m53.643 60.277-6.243 79.69a5.33 5.33 0 0 1-5.723 4.892l-29.115-2.28a3.744 3.744 0 0 1-3.428-4.023l6.49-82.843a3.736 3.736 0 0 1 4.013-3.44l29.115 2.281a5.331 5.331 0 0 1 4.891 5.723Z" class="g"/>
    <path d="m33.65 53.373-.009.113-1.041-.084a3.745 3.745 0 0 0-4.014 3.442l-6.491 82.857a3.741 3.741 0 0 0 2.561 3.827l-12.09-.947a3.75 3.75 0 0 1-3.433-4.014l6.491-82.848a3.738 3.738 0 0 1 4.014-3.442Z" class="n"/>
    <rect width="2.475" height="83.523" class="n" rx="1.088" transform="rotate(4.48 -701.964 436.542)"/>
    <rect width="2.475" height="83.523" class="n" rx="1.088" transform="rotate(4.48 -710.087 511.343)"/>
    <rect width="2.475" height="83.523" class="n" rx="1.088" transform="rotate(4.481 -711.36 585.784)"/>
    <rect width="2.475" height="83.523" class="n" rx="1.088" transform="rotate(4.48 -712.96 660.448)"/>
  </g>
</svg>
